<mxfile host="drawio-plugin" modified="2024-06-27T19:19:48.109Z" agent="Mozilla/5.0 (X11; Linux x86_64) AppleWebKit/537.36 (KHTML, like Gecko) Chrome/122.0.0.0 Safari/537.36" etag="eR9Gcw-gRXkEk5VeQOKR" version="22.1.22" type="embed">
  <diagram id="23iRSUPoRavnBvh4doch" name="Page-1">
    <mxGraphModel dx="791" dy="1120" grid="1" gridSize="10" guides="1" tooltips="1" connect="1" arrows="1" fold="1" page="1" pageScale="1" pageWidth="827" pageHeight="1169" math="0" shadow="0">
      <root>
        <mxCell id="0" />
        <mxCell id="1" parent="0" />
        <mxCell id="8" style="edgeStyle=orthogonalEdgeStyle;rounded=0;orthogonalLoop=1;jettySize=auto;html=1;" edge="1" parent="1" source="4" target="7">
          <mxGeometry relative="1" as="geometry" />
        </mxCell>
        <mxCell id="11" style="edgeStyle=orthogonalEdgeStyle;rounded=0;orthogonalLoop=1;jettySize=auto;html=1;" edge="1" parent="1" source="4" target="10">
          <mxGeometry relative="1" as="geometry" />
        </mxCell>
        <mxCell id="13" style="edgeStyle=orthogonalEdgeStyle;rounded=0;orthogonalLoop=1;jettySize=auto;html=1;" edge="1" parent="1" source="4" target="12">
          <mxGeometry relative="1" as="geometry">
            <Array as="points">
              <mxPoint x="540" y="180" />
              <mxPoint x="540" y="420" />
            </Array>
          </mxGeometry>
        </mxCell>
        <mxCell id="4" value="&lt;b&gt;Settings&lt;/b&gt;" style="whiteSpace=wrap;html=1;aspect=fixed;" vertex="1" parent="1">
          <mxGeometry x="380" y="120" width="120" height="120" as="geometry" />
        </mxCell>
        <mxCell id="6" style="edgeStyle=orthogonalEdgeStyle;rounded=0;orthogonalLoop=1;jettySize=auto;html=1;" edge="1" parent="1" source="5" target="4">
          <mxGeometry relative="1" as="geometry" />
        </mxCell>
        <mxCell id="15" style="edgeStyle=orthogonalEdgeStyle;rounded=0;orthogonalLoop=1;jettySize=auto;html=1;" edge="1" parent="1" source="5" target="14">
          <mxGeometry relative="1" as="geometry">
            <Array as="points">
              <mxPoint x="310" y="180" />
              <mxPoint x="310" y="620" />
            </Array>
          </mxGeometry>
        </mxCell>
        <mxCell id="28" style="edgeStyle=orthogonalEdgeStyle;rounded=0;orthogonalLoop=1;jettySize=auto;html=1;" edge="1" parent="1" source="5" target="20">
          <mxGeometry relative="1" as="geometry">
            <Array as="points">
              <mxPoint x="310" y="180" />
              <mxPoint x="310" y="820" />
            </Array>
          </mxGeometry>
        </mxCell>
        <mxCell id="29" style="edgeStyle=orthogonalEdgeStyle;rounded=0;orthogonalLoop=1;jettySize=auto;html=1;" edge="1" parent="1" source="5" target="21">
          <mxGeometry relative="1" as="geometry">
            <Array as="points">
              <mxPoint x="310" y="180" />
              <mxPoint x="310" y="1020" />
            </Array>
          </mxGeometry>
        </mxCell>
        <mxCell id="30" style="edgeStyle=orthogonalEdgeStyle;rounded=0;orthogonalLoop=1;jettySize=auto;html=1;" edge="1" parent="1" source="5" target="22">
          <mxGeometry relative="1" as="geometry">
            <Array as="points">
              <mxPoint x="310" y="180" />
              <mxPoint x="310" y="1220" />
            </Array>
          </mxGeometry>
        </mxCell>
        <mxCell id="5" value="&lt;b&gt;Home&lt;/b&gt;" style="whiteSpace=wrap;html=1;aspect=fixed;" vertex="1" parent="1">
          <mxGeometry x="120" y="120" width="120" height="120" as="geometry" />
        </mxCell>
        <mxCell id="7" value="&lt;b&gt;Sensor-Settings&lt;/b&gt;" style="whiteSpace=wrap;html=1;aspect=fixed;" vertex="1" parent="1">
          <mxGeometry x="580" y="40" width="120" height="120" as="geometry" />
        </mxCell>
        <mxCell id="10" value="&lt;b&gt;GUI-Settings&lt;/b&gt;" style="whiteSpace=wrap;html=1;aspect=fixed;" vertex="1" parent="1">
          <mxGeometry x="580" y="200" width="120" height="120" as="geometry" />
        </mxCell>
        <mxCell id="12" value="&lt;b&gt;Actor-Settings&lt;/b&gt;" style="whiteSpace=wrap;html=1;aspect=fixed;" vertex="1" parent="1">
          <mxGeometry x="580" y="360" width="120" height="120" as="geometry" />
        </mxCell>
        <mxCell id="18" style="edgeStyle=orthogonalEdgeStyle;rounded=0;orthogonalLoop=1;jettySize=auto;html=1;" edge="1" parent="1" source="14" target="17">
          <mxGeometry relative="1" as="geometry" />
        </mxCell>
        <mxCell id="14" value="&lt;b&gt;Grow-Journal&lt;/b&gt;" style="whiteSpace=wrap;html=1;aspect=fixed;" vertex="1" parent="1">
          <mxGeometry x="380" y="560" width="120" height="120" as="geometry" />
        </mxCell>
        <mxCell id="17" value="&lt;b&gt;Journal-Calendar&lt;/b&gt;" style="whiteSpace=wrap;html=1;aspect=fixed;" vertex="1" parent="1">
          <mxGeometry x="580" y="560" width="120" height="120" as="geometry" />
        </mxCell>
        <mxCell id="19" value="Bottomnavigation&lt;br&gt;Here you can put notes to todays journal-entry" style="text;html=1;strokeColor=none;fillColor=none;align=center;verticalAlign=middle;whiteSpace=wrap;rounded=0;fontSize=10;" vertex="1" parent="1">
          <mxGeometry x="385" y="640" width="110" height="30" as="geometry" />
        </mxCell>
        <mxCell id="20" value="&lt;b&gt;Light&lt;/b&gt;" style="whiteSpace=wrap;html=1;aspect=fixed;" vertex="1" parent="1">
          <mxGeometry x="380" y="760" width="120" height="120" as="geometry" />
        </mxCell>
        <mxCell id="21" value="&lt;b&gt;Air-Quality&lt;/b&gt;" style="whiteSpace=wrap;html=1;aspect=fixed;" vertex="1" parent="1">
          <mxGeometry x="380" y="960" width="120" height="120" as="geometry" />
        </mxCell>
        <mxCell id="22" value="&lt;b&gt;Water&lt;/b&gt;" style="whiteSpace=wrap;html=1;aspect=fixed;" vertex="1" parent="1">
          <mxGeometry x="380" y="1160" width="120" height="120" as="geometry" />
        </mxCell>
        <mxCell id="23" value="Bottomnavigation" style="text;html=1;strokeColor=none;fillColor=none;align=center;verticalAlign=middle;whiteSpace=wrap;rounded=0;fontSize=10;" vertex="1" parent="1">
          <mxGeometry x="410" y="200" width="60" height="30" as="geometry" />
        </mxCell>
        <mxCell id="24" value="Mainscreen" style="text;html=1;strokeColor=none;fillColor=none;align=center;verticalAlign=middle;whiteSpace=wrap;rounded=0;fontSize=10;" vertex="1" parent="1">
          <mxGeometry x="410" y="840" width="60" height="30" as="geometry" />
        </mxCell>
        <mxCell id="26" value="Mainscreen" style="text;html=1;strokeColor=none;fillColor=none;align=center;verticalAlign=middle;whiteSpace=wrap;rounded=0;fontSize=10;" vertex="1" parent="1">
          <mxGeometry x="410" y="1040" width="60" height="30" as="geometry" />
        </mxCell>
        <mxCell id="27" value="Mainscreen" style="text;html=1;strokeColor=none;fillColor=none;align=center;verticalAlign=middle;whiteSpace=wrap;rounded=0;fontSize=10;" vertex="1" parent="1">
          <mxGeometry x="410" y="1240" width="60" height="30" as="geometry" />
        </mxCell>
      </root>
    </mxGraphModel>
  </diagram>
</mxfile>
